<svg width="480" height="481" viewBox="0 0 480 481" fill="none" xmlns="http://www.w3.org/2000/svg">
<g clip-path="url(#clip0)">
<path d="M476.178 120.425C467.779 105.834 457.1 91.128 444.532 76.902C440.622 72.466 435.118 71.593 430.106 74.318L429.451 74.561C427.389 75.036 425.566 76.054 423.89 77.671C397.16 103.452 367.276 115.989 332.537 115.989C296.396 115.989 259.82 103 221.096 89.246L209.754 85.232C176.798 73.636 147.633 68 120.577 68C76.8933 68 39.1413 82.782 5.17226 113.196C3.26326 114.903 2.00426 116.908 1.41726 119.16L1.22426 119.67C-0.418743 122.971 -0.398743 126.611 1.27726 130.204C6.83526 142.112 12.8983 154.878 19.5683 167.55L19.7663 168.048C21.0813 172.656 25.1083 177.617 30.8593 177.617C32.7813 177.617 34.7693 177.054 36.7553 175.936L38.2053 175.166C68.0693 158.754 100.334 150.805 136.952 150.805C177.225 150.805 218.553 160.42 258.521 169.718C267.508 171.807 276.497 173.897 285.51 175.895C306.746 180.6 327.109 182.981 346.025 182.981C393.829 182.981 436.159 168.1 475.437 137.477C478.113 135.398 479.606 132.917 479.875 130.114C480.165 127.141 479.002 123.906 476.687 121.238L476.178 120.425ZM447.858 126.851C417.741 147.328 386.176 156.87 348.503 156.87C311.805 156.87 273.907 147.676 237.257 138.785C200.437 129.853 168.395 125.511 139.303 125.511C102.353 125.511 69.7553 132.364 39.6483 146.455L37.3553 147.531L36.2203 145.259C33.5063 139.821 30.8323 134.354 28.2273 128.858L27.3533 127.006L28.9503 125.724C55.8483 104.024 85.1813 93.474 118.637 93.474C157.928 93.474 197.726 107.596 239.866 122.556L244.063 124.043C276.8 135.649 305.359 141.291 331.364 141.291C369.494 141.291 402.258 129.188 431.532 104.28L433.573 102.543L435.249 104.633C439.667 110.155 444.029 116.254 448.584 123.274L449.965 125.407L447.858 126.851Z" fill="url(#paint0_linear)"/>
<path d="M476.173 234.951C467.778 220.37 457.1 205.666 444.531 191.438C440.621 187.008 435.142 186.139 430.099 188.854L429.45 189.1C427.388 189.578 425.56 190.596 423.889 192.207C397.159 217.988 367.275 230.526 332.536 230.526C296.395 230.526 259.819 217.536 221.095 203.783L209.753 199.769C176.802 188.178 147.632 182.542 120.576 182.542C76.8923 182.542 39.1403 197.324 5.17128 227.739C3.26228 229.445 2.00328 231.448 1.41628 233.703L1.21828 234.213C-0.424725 237.516 -0.404724 241.155 1.27128 244.755C6.82428 256.648 12.8873 269.403 19.5623 282.099L19.7603 282.597C21.0753 287.207 25.1023 292.163 30.8533 292.163C32.7753 292.163 34.7633 291.604 36.7493 290.487L38.1993 289.725C68.0633 273.313 100.328 265.351 136.945 265.351C177.218 265.351 218.541 274.974 258.509 284.266C267.497 286.354 276.49 288.455 285.504 290.447C306.74 295.149 327.103 297.536 346.018 297.536C393.823 297.536 436.153 282.647 475.431 252.027C478.107 249.945 479.6 247.462 479.869 244.664C480.159 241.688 478.996 238.456 476.681 235.79L476.173 234.951ZM447.858 241.387C417.741 261.866 386.176 271.403 348.503 271.403C311.805 271.403 273.907 262.213 237.257 253.326C200.437 244.388 168.395 240.047 139.303 240.047C102.353 240.047 69.7553 246.898 39.6483 260.994L37.3553 262.06L36.2203 259.789C33.5063 254.346 30.8323 248.887 28.2273 243.393L27.3533 241.539L28.9503 240.254C55.8483 218.554 85.1813 208.004 118.637 208.004C157.933 208.004 197.732 222.134 239.871 237.093L244.063 238.578C276.8 250.186 305.359 255.828 331.364 255.828C369.494 255.828 402.258 243.718 431.532 218.815L433.573 217.078L435.249 219.168C439.667 224.69 444.029 230.792 448.584 237.809L449.965 239.939L447.858 241.387Z" fill="url(#paint1_linear)"/>
<path d="M476.173 349.482C467.783 334.908 457.105 320.203 444.531 305.974C440.621 301.536 435.133 300.677 430.099 303.394L429.45 303.638C427.388 304.116 425.56 305.131 423.889 306.75C397.159 332.531 367.275 345.063 332.536 345.063C296.401 345.063 259.824 332.074 221.099 318.323L209.752 314.311C176.801 302.723 147.631 297.082 120.575 297.082C76.8913 297.082 39.1393 311.864 5.1633 342.276C3.2613 343.976 2.0023 345.993 1.4153 348.242L1.2223 348.75C-0.420696 352.051 -0.400696 355.697 1.2753 359.282C6.8223 371.17 12.8803 383.926 19.5663 396.636L19.7643 397.133C21.0793 401.744 25.1113 406.7 30.8623 406.7C32.7843 406.7 34.7673 406.141 36.7533 405.024L38.1013 404.303C68.0773 387.834 100.337 379.888 136.954 379.888C177.232 379.888 218.559 389.505 258.528 398.798C267.511 400.89 276.505 402.983 285.512 404.983C306.748 409.68 327.111 412.067 346.032 412.067C393.831 412.072 436.161 397.183 475.439 366.563C478.115 364.481 479.608 362.003 479.877 359.201C480.166 356.235 479.003 352.995 476.688 350.329L476.173 349.482ZM447.858 355.927C417.746 376.406 386.176 385.943 348.507 385.943C311.819 385.943 273.912 376.747 237.257 367.86C200.437 358.928 168.395 354.582 139.303 354.582C102.353 354.582 69.7553 361.432 39.6483 375.533L37.3553 376.599L36.2203 374.325C33.5063 368.882 30.8323 363.428 28.2273 357.928L27.3533 356.085L28.9503 354.795C55.8483 333.102 85.1813 322.55 118.637 322.55C157.933 322.55 197.732 336.682 239.871 351.637L244.063 353.119C276.806 364.727 305.359 370.374 331.364 370.374C369.494 370.374 402.262 358.269 431.532 333.355L433.573 331.619L435.249 333.711C439.667 339.236 444.029 345.335 448.584 352.357L449.965 354.49L447.858 355.927Z" fill="url(#paint2_linear)"/>
</g>
<defs>
<linearGradient id="paint0_linear" x1="239.962" y1="68" x2="239.962" y2="182.981" gradientUnits="userSpaceOnUse">
<stop offset="0.390625" stop-color="#2255D7"/>
<stop offset="0.984375" stop-color="#FFD00D"/>
</linearGradient>
<linearGradient id="paint1_linear" x1="239.956" y1="182.542" x2="239.956" y2="297.536" gradientUnits="userSpaceOnUse">
<stop offset="0.390625" stop-color="#2255D7"/>
<stop offset="0.984375" stop-color="#FFD00D"/>
</linearGradient>
<linearGradient id="paint2_linear" x1="239.962" y1="297.082" x2="239.962" y2="412.067" gradientUnits="userSpaceOnUse">
<stop offset="0.390625" stop-color="#2255D7"/>
<stop offset="0.984375" stop-color="#FFD00D"/>
</linearGradient>
<clipPath id="clip0">
<rect width="479.921" height="480.067" fill="white"/>
</clipPath>
</defs>
</svg>
